<?xml version="1.0" encoding="UTF-8"?>
<svg version="1.1" xmlns="http://www.w3.org/2000/svg" width="128" height="128">
<path d="M0 0 C7.37256282 4.62502388 12.53599654 10.65602288 14.6484375 19.30078125 C14.85082031 20.37585938 15.05320312 21.4509375 15.26171875 22.55859375 C16.52230651 29.07807524 19.34109187 33.51341665 23.2421875 38.8203125 C24.88671875 41.18359375 24.88671875 41.18359375 24.88671875 43.18359375 C23.4712846 43.38018183 22.05427844 43.56546921 20.63671875 43.74609375 C19.45335938 43.90271484 19.45335938 43.90271484 18.24609375 44.0625 C15.88671875 44.18359375 15.88671875 44.18359375 13.82421875 43.48046875 C13.18484375 43.3825 12.54546875 43.28453125 11.88671875 43.18359375 C9.91655546 44.69689345 9.91655546 44.69689345 8.13671875 46.87109375 C3.17543105 52.17549854 -2.69644373 55.82908442 -10.08203125 56.421875 C-17.94555392 56.58714815 -25.26809605 56.44632852 -32.11328125 52.18359375 C-33.890625 50.01953125 -33.890625 50.01953125 -35.48828125 47.62109375 C-38.42820955 43.22561271 -40.84565536 42.33051703 -45.98828125 41.24609375 C-47.12007812 41.07207031 -48.251875 40.89804688 -49.41796875 40.71875 C-50.30742188 40.54214844 -51.196875 40.36554688 -52.11328125 40.18359375 C-52.44328125 39.52359375 -52.77328125 38.86359375 -53.11328125 38.18359375 C-51.75854479 35.78583011 -50.35459823 33.49397747 -48.86328125 31.18359375 C-45.18521179 25.30388278 -42.80301273 19.92981491 -41.11328125 13.18359375 C-38.45019375 5.89514375 -32.6199356 2.32238076 -25.98828125 -1.19140625 C-17.75151703 -4.58301504 -7.84612203 -4.19136648 0 0 Z " fill="#D220E6" transform="translate(78.11328125,37.81640625)"/>
<path d="M0 0 C5.0950438 4.39227914 6.78827011 9.2481871 7.6875 15.6875 C8.71122734 21.58525661 11.85976148 25.75298027 15.3203125 30.53125 C17 33 17 33 17 35 C15.58456585 35.19658808 14.16755969 35.38187546 12.75 35.5625 C11.56664063 35.71912109 11.56664063 35.71912109 10.359375 35.87890625 C8 36 8 36 5.9375 35.296875 C5.298125 35.19890625 4.65875 35.1009375 4 35 C2.02983671 36.5132997 2.02983671 36.5132997 0.25 38.6875 C-4.7112877 43.99190479 -10.58316248 47.64549067 -17.96875 48.23828125 C-25.83227267 48.4035544 -33.1548148 48.26273477 -40 44 C-41.77734375 41.8359375 -41.77734375 41.8359375 -43.375 39.4375 C-46.3149283 35.04201896 -48.73237411 34.14692328 -53.875 33.0625 C-55.00679687 32.88847656 -56.13859375 32.71445313 -57.3046875 32.53515625 C-58.19414063 32.35855469 -59.08359375 32.18195313 -60 32 C-60.33 31.34 -60.66 30.68 -61 30 C-59.64527159 27.6022506 -58.24148512 25.31026214 -56.75 23 C-53.11408983 17.19525231 -50.38751491 11.77809007 -49 5 C-48.12159004 8.09720845 -48.00564594 9.90645403 -49 13 C-47.68 13 -46.36 13 -45 13 C-45.14049518 14.47968324 -45.28754826 15.95874516 -45.4375 17.4375 C-45.51871094 18.26121094 -45.59992187 19.08492187 -45.68359375 19.93359375 C-46 22 -46 22 -47 23 C-48.66617115 23.04063832 -50.33388095 23.042721 -52 23 C-52 22.34 -52 21.68 -52 21 C-52.66 21.33 -53.32 21.66 -54 22 C-54.70491267 24.32206525 -55.37212429 26.65593068 -56 29 C-56.33 29.33 -56.66 29.66 -57 30 C-55.02 30.33 -53.04 30.66 -51 31 C-50.67 30.01 -50.34 29.02 -50 28 C-49.814375 28.639375 -49.62875 29.27875 -49.4375 29.9375 C-48.08785631 32.37743195 -48.08785631 32.37743195 -44.6875 32.6875 C-43.470625 32.790625 -42.25375 32.89375 -41 33 C-39.33065717 33.31966139 -37.6626783 33.64731066 -36 34 C-36 34.66 -36 35.32 -36 36 C-36.99 36 -37.98 36 -39 36 C-39 36.99 -39 37.98 -39 39 C-38.01 39 -37.02 39 -36 39 C-36 40.65 -36 42.3 -36 44 C-34.68 44 -33.36 44 -32 44 C-32 42.35 -32 40.7 -32 39 C-31.34 39 -30.68 39 -30 39 C-30 39.99 -30 40.98 -30 42 C-28.68 42 -27.36 42 -26 42 C-25.67 40.68 -25.34 39.36 -25 38 C-24.67 38 -24.34 38 -24 38 C-24 39.98 -24 41.96 -24 44 C-22.68 44 -21.36 44 -20 44 C-20.06962633 40.27182653 -20.23437883 36.65557149 -21 33 C-23.35547425 30.71204241 -23.35547425 30.71204241 -26 30 C-26.495 31.485 -26.495 31.485 -27 33 C-27.99 32.505 -27.99 32.505 -29 32 C-29 31.01 -29 30.02 -29 29 C-26 27 -26 27 -22 27 C-22 25.02 -22 23.04 -22 21 C-21.34 21 -20.68 21 -20 21 C-20 24.3 -20 27.6 -20 31 C-19.34 31 -18.68 31 -18 31 C-18.0825 31.886875 -18.165 32.77375 -18.25 33.6875 C-17.9462411 37.71230539 -16.62767506 39.04386556 -14 42 C-14 42.66 -14 43.32 -14 44 C-8.20217529 41.55426749 -4.71314526 39.10557473 -1 34 C-4.63 34.33 -8.26 34.66 -12 35 C-12 34.01 -12 33.02 -12 32 C-10.35 32 -8.7 32 -7 32 C-7.7734375 30.6078125 -7.7734375 30.6078125 -8.5625 29.1875 C-10 26 -10 26 -9 23 C-8.01 23.99 -7.02 24.98 -6 26 C-5.01 25.67 -4.02 25.34 -3 25 C-3.1546875 23.1128125 -3.1546875 23.1128125 -3.3125 21.1875 C-3.37050781 20.47980469 -3.42851563 19.77210937 -3.48828125 19.04296875 C-3.92360313 16.56228691 -3.92360313 16.56228691 -7 14 C-6.34 16.97 -5.68 19.94 -5 23 C-8.32901247 20.78065836 -8.75023244 19.65316671 -10 16 C-10.99 16.33 -11.98 16.66 -13 17 C-13 15.35 -13 13.7 -13 12 C-13.99 12 -14.98 12 -16 12 C-15.855625 12.58007812 -15.71125 13.16015625 -15.5625 13.7578125 C-14.49110572 18.26659675 -13.76054064 22.33054247 -14 27 C-16.29633824 23.55549263 -16.54016485 21.06187717 -17 17 C-18.98 16.67 -20.96 16.34 -23 16 C-23 14.68 -23 13.36 -23 12 C-21.06403108 11.77788884 -19.12610672 11.57277008 -17.1875 11.375 C-16.10855469 11.25898437 -15.02960938 11.14296875 -13.91796875 11.0234375 C-11 11 -11 11 -8 13 C-5.24612373 13.02477359 -5.24612373 13.02477359 -2.3125 12.625 C-1.31863281 12.51414062 -0.32476562 12.40328125 0.69921875 12.2890625 C1.45847656 12.19367187 2.21773437 12.09828125 3 12 C2.7834375 11.30132812 2.566875 10.60265625 2.34375 9.8828125 C2.0653125 8.97273438 1.786875 8.06265625 1.5 7.125 C1.2215625 6.22007813 0.943125 5.31515625 0.65625 4.3828125 C0 2 0 2 0 0 Z " fill="#858287" transform="translate(86,46)"/>
<path d="M0 0 C0.62777344 0.39316406 1.25554687 0.78632812 1.90234375 1.19140625 C2.49917969 1.55363281 3.09601563 1.91585937 3.7109375 2.2890625 C7.53915043 4.99727069 8.73627596 7.62285771 9.578125 12.03125 C9.68511719 12.74410156 9.79210937 13.45695312 9.90234375 14.19140625 C10.08152344 15.26519531 10.26070312 16.33898437 10.4453125 17.4453125 C10.59613281 18.35152344 10.74695313 19.25773437 10.90234375 20.19140625 C8.94669117 20.58014453 6.98767871 20.95201458 5.02734375 21.31640625 C3.39152344 21.62964844 3.39152344 21.62964844 1.72265625 21.94921875 C0.32660156 22.06910156 0.32660156 22.06910156 -1.09765625 22.19140625 C-1.75765625 21.53140625 -2.41765625 20.87140625 -3.09765625 20.19140625 C-5.99648708 19.94801074 -5.99648708 19.94801074 -9.22265625 20.06640625 C-10.86621094 20.09347656 -10.86621094 20.09347656 -12.54296875 20.12109375 C-13.80753906 20.15589844 -13.80753906 20.15589844 -15.09765625 20.19140625 C-15.42765625 20.85140625 -15.75765625 21.51140625 -16.09765625 22.19140625 C-16.22140625 21.55203125 -16.34515625 20.91265625 -16.47265625 20.25390625 C-16.67890625 19.57328125 -16.88515625 18.89265625 -17.09765625 18.19140625 C-17.75765625 17.86140625 -18.41765625 17.53140625 -19.09765625 17.19140625 C-19.75765625 19.83140625 -20.41765625 22.47140625 -21.09765625 25.19140625 C-21.75765625 24.86140625 -22.41765625 24.53140625 -23.09765625 24.19140625 C-23.09765625 23.53140625 -23.09765625 22.87140625 -23.09765625 22.19140625 C-23.71640625 22.06765625 -24.33515625 21.94390625 -24.97265625 21.81640625 C-27.09765625 21.19140625 -27.09765625 21.19140625 -29.09765625 19.19140625 C-28.62328125 18.82015625 -28.14890625 18.44890625 -27.66015625 18.06640625 C-25.58620644 15.57766648 -25.57748466 13.34456439 -25.09765625 10.19140625 C-24.43765625 9.86140625 -23.77765625 9.53140625 -23.09765625 9.19140625 C-24.06703125 8.92328125 -25.03640625 8.65515625 -26.03515625 8.37890625 C-27.04578125 7.98703125 -28.05640625 7.59515625 -29.09765625 7.19140625 C-30.09765625 4.19140625 -30.09765625 4.19140625 -29.03515625 1.62890625 C-22.90746898 -6.08011968 -7.82850442 -4.18394929 0 0 Z " fill="#F6F5F7" transform="translate(78.09765625,37.80859375)"/>
<path d="M0 0 C-0.33 1.65 -0.66 3.3 -1 5 C0.4540625 5.433125 0.4540625 5.433125 1.9375 5.875 C5 7 5 7 6 9 C5.01 9 4.02 9 3 9 C3.04125 9.9075 3.0825 10.815 3.125 11.75 C3.00468444 14.8782046 2.6085292 16.38614006 1 19 C1.639375 19.28875 2.27875 19.5775 2.9375 19.875 C5 21 5 21 6 23 C6.99 20.69 7.98 18.38 9 16 C12 17 12 17 13.125 18.875 C13.81761182 20.55705727 14.4247585 22.27427551 15 24 C16.32 24 17.64 24 19 24 C19.66 26.31 20.32 28.62 21 31 C20.505 25.06 20.505 25.06 20 19 C20.99 19 21.98 19 23 19 C23 20.65 23 22.3 23 24 C23.66 24 24.32 24 25 24 C25.33 23.34 25.66 22.68 26 22 C28.22189824 24.22189824 28.92598892 26.08482708 30 29 C29.505 25.04 29.505 25.04 29 21 C32 22 32 22 33.1875 24.1875 C34.07334979 27.25390311 34.14770318 29.82438155 34 33 C33.01 32.67 32.02 32.34 31 32 C30.505 32.99 30.505 32.99 30 34 C29.01 33.01 28.02 32.02 27 31 C27.66 33.64 28.32 36.28 29 39 C27.35 39 25.7 39 24 39 C24 39.99 24 40.98 24 42 C27.63 41.67 31.26 41.34 35 41 C32.81654527 45.36690946 30.91357709 47.16073819 27 50 C24.125 50.8125 24.125 50.8125 22 51 C16.94091904 45.08315098 16.94091904 45.08315098 17.1875 40.5625 C17.455625 39.716875 17.72375 38.87125 18 38 C17.34 38 16.68 38 16 38 C16 34.7 16 31.4 16 28 C15.34 28 14.68 28 14 28 C13.34 29.32 12.68 30.64 12 32 C10 29 10 29 10 26 C9.0925 26.04125 8.185 26.0825 7.25 26.125 C4.1217954 26.00468444 2.61385994 25.6085292 0 24 C0 23.01 0 22.02 0 21 C-0.99 21.33 -1.98 21.66 -3 22 C-3.12375 21.443125 -3.2475 20.88625 -3.375 20.3125 C-3.94943207 17.93056401 -3.94943207 17.93056401 -5.125 15.5625 C-6.13884682 12.59337718 -5.85027264 10.97595424 -5 8 C-5.598125 8.66 -6.19625 9.32 -6.8125 10 C-9 12 -9 12 -12 12 C-10.92772145 6.37053761 -8.31212146 4.28258708 -3.875 1.1015625 C-2 0 -2 0 0 0 Z " fill="#F364FA" transform="translate(50,39)"/>
<path d="M0 0 C5.93919856 5.11999876 7.01081629 10.45590957 7.875 17.9375 C8.65569499 24.24363111 10.17592318 27.96831997 14 33 C12.35 33 10.7 33 9 33 C7.68 30.03 6.36 27.06 5 24 C5 26.31 5 28.62 5 31 C2.69 31.33 0.38 31.66 -2 32 C-2.66 29.69 -3.32 27.38 -4 25 C-3.67 25 -3.34 25 -3 25 C-3.103125 23.741875 -3.20625 22.48375 -3.3125 21.1875 C-3.37050781 20.47980469 -3.42851563 19.77210937 -3.48828125 19.04296875 C-3.92360313 16.56228691 -3.92360313 16.56228691 -7 14 C-6.34 16.97 -5.68 19.94 -5 23 C-8.32901247 20.78065836 -8.75023244 19.65316671 -10 16 C-10.99 16.33 -11.98 16.66 -13 17 C-13 15.35 -13 13.7 -13 12 C-13.99 12 -14.98 12 -16 12 C-15.855625 12.58007812 -15.71125 13.16015625 -15.5625 13.7578125 C-14.49110572 18.26659675 -13.76054064 22.33054247 -14 27 C-16.29633824 23.55549263 -16.54016485 21.06187717 -17 17 C-18.98 16.67 -20.96 16.34 -23 16 C-23 14.68 -23 13.36 -23 12 C-21.06403108 11.77788884 -19.12610672 11.57277008 -17.1875 11.375 C-16.10855469 11.25898437 -15.02960938 11.14296875 -13.91796875 11.0234375 C-11 11 -11 11 -8 13 C-5.24612373 13.02477359 -5.24612373 13.02477359 -2.3125 12.625 C-1.31863281 12.51414062 -0.32476562 12.40328125 0.69921875 12.2890625 C1.45847656 12.19367187 2.21773437 12.09828125 3 12 C2.7834375 11.30132812 2.566875 10.60265625 2.34375 9.8828125 C2.0653125 8.97273438 1.786875 8.06265625 1.5 7.125 C1.2215625 6.22007813 0.943125 5.31515625 0.65625 4.3828125 C0 2 0 2 0 0 Z " fill="#DA4BEB" transform="translate(86,46)"/>
<path d="M0 0 C2.93484934 1.86654017 5.41261745 3.78134441 7.91015625 6.21484375 C7.91015625 6.87484375 7.91015625 7.53484375 7.91015625 8.21484375 C6.59015625 8.21484375 5.27015625 8.21484375 3.91015625 8.21484375 C4.15765625 8.98828125 4.15765625 8.98828125 4.41015625 9.77734375 C5.06064625 12.94848251 4.97222965 15.98702709 4.91015625 19.21484375 C-0.96484375 18.33984375 -0.96484375 18.33984375 -2.08984375 17.21484375 C-2.13077312 14.88186942 -2.13226098 12.5477915 -2.08984375 10.21484375 C-2.89421875 10.27671875 -3.69859375 10.33859375 -4.52734375 10.40234375 C-9.06633108 10.16344968 -12.85885976 8.79441111 -17.08984375 7.21484375 C-16.75984375 6.22484375 -16.42984375 5.23484375 -16.08984375 4.21484375 C-14.15264997 4.16078253 -12.21502454 4.1220235 -10.27734375 4.08984375 C-9.19839844 4.06664062 -8.11945313 4.0434375 -7.0078125 4.01953125 C-4.08984375 4.21484375 -4.08984375 4.21484375 -1.08984375 6.21484375 C-2.72396818 4.50644094 -3.95890469 3.28031328 -6.08984375 2.21484375 C-6.08984375 1.55484375 -6.08984375 0.89484375 -6.08984375 0.21484375 C-8.81907763 0.18776205 -11.54804012 0.16796528 -14.27734375 0.15234375 C-15.04626953 0.14396484 -15.81519531 0.13558594 -16.60742188 0.12695312 C-20.57511164 0.10992441 -24.21555609 0.2288026 -28.08984375 1.21484375 C-27.08984375 -0.78515625 -27.08984375 -0.78515625 -24.453125 -1.88671875 C-16.3264261 -4.05761393 -7.5255117 -3.95265194 0 0 Z " fill="#CCCCCC" transform="translate(78.08984375,37.78515625)"/>
<path d="M0 0 C0.66 0.33 1.32 0.66 2 1 C1.34 1.66 0.68 2.32 0 3 C0.32823127 7.34906427 1.19739236 11.0342632 3 15 C3.66 15 4.32 15 5 15 C5 15.99 5 16.98 5 18 C8.3 18.66 11.6 19.32 15 20 C15 21.65 15 23.3 15 25 C6.93277311 26.21008403 6.93277311 26.21008403 3 25 C2.34 25.33 1.68 25.66 1 26 C0.67 23.36 0.34 20.72 0 18 C-0.66 20.97 -1.32 23.94 -2 27 C-3.32 27 -4.64 27 -6 27 C-5.85769192 25.58297487 -5.71099254 24.1663904 -5.5625 22.75 C-5.48128906 21.96109375 -5.40007813 21.1721875 -5.31640625 20.359375 C-5.02365007 18.17635361 -4.57935581 16.1226818 -4 14 C-5.32 14 -6.64 14 -8 14 C-7.67 11.36 -7.34 8.72 -7 6 C-6.01 5.67 -5.02 5.34 -4 5 C-2.61423077 3.37667033 -1.27358732 1.71275535 0 0 Z " fill="#C355E2" transform="translate(45,45)"/>
<path d="M0 0 C-0.33 1.65 -0.66 3.3 -1 5 C0.4540625 5.433125 0.4540625 5.433125 1.9375 5.875 C5 7 5 7 6 9 C5.01 9 4.02 9 3 9 C3.04125 9.9075 3.0825 10.815 3.125 11.75 C3.00468444 14.8782046 2.6085292 16.38614006 1 19 C1.639375 19.28875 2.27875 19.5775 2.9375 19.875 C5 21 5 21 6 23 C6.66 21.35 7.32 19.7 8 18 C8.99 18.33 9.98 18.66 11 19 C10.34 19 9.68 19 9 19 C9.226875 19.598125 9.45375 20.19625 9.6875 20.8125 C10 23 10 23 8.8125 24.8125 C7 26 7 26 5 25.75 C4.34 25.5025 3.68 25.255 3 25 C2.01 24.67 1.02 24.34 0 24 C0 23.01 0 22.02 0 21 C-0.99 21.33 -1.98 21.66 -3 22 C-3.12375 21.443125 -3.2475 20.88625 -3.375 20.3125 C-3.94943207 17.93056401 -3.94943207 17.93056401 -5.125 15.5625 C-6.13884682 12.59337718 -5.85027264 10.97595424 -5 8 C-5.598125 8.66 -6.19625 9.32 -6.8125 10 C-9 12 -9 12 -12 12 C-10.92772145 6.37053761 -8.31212146 4.28258708 -3.875 1.1015625 C-2 0 -2 0 0 0 Z " fill="#DADADA" transform="translate(50,39)"/>
<path d="M0 0 C4.55384615 -0.36923077 4.55384615 -0.36923077 6.8125 1.5 C7.204375 1.995 7.59625 2.49 8 3 C8.33 2.34 8.66 1.68 9 1 C13.875 2.875 13.875 2.875 15 4 C15.07226502 5.85287502 15.0838122 7.70833878 15.0625 9.5625 C15.05347656 10.57441406 15.04445313 11.58632812 15.03515625 12.62890625 C15.02355469 13.41136719 15.01195313 14.19382812 15 15 C13.68 15 12.36 15 11 15 C10.67 13.35 10.34 11.7 10 10 C9.67 10.99 9.34 11.98 9 13 C7.68 13 6.36 13 5 13 C5 12.01 5 11.02 5 10 C4.34 10 3.68 10 3 10 C3 11.65 3 13.3 3 15 C1.68 15 0.36 15 -1 15 C-1 13.35 -1 11.7 -1 10 C-1.99 10 -2.98 10 -4 10 C-4 9.01 -4 8.02 -4 7 C-3.01 6.67 -2.02 6.34 -1 6 C-0.67 4.02 -0.34 2.04 0 0 Z " fill="#E8E2EA" transform="translate(51,75)"/>
<path d="M0 0 C0.33 0.99 0.66 1.98 1 3 C-0.65 3 -2.3 3 -4 3 C-4 3.99 -4 4.98 -4 6 C1.445 5.505 1.445 5.505 7 5 C4.81654527 9.36690946 2.91357709 11.16073819 -1 14 C-3.875 14.8125 -3.875 14.8125 -6 15 C-10.97733152 9.17876106 -10.97733152 9.17876106 -11.0625 4.75 C-8.79411138 -1.12112349 -5.79842788 -1.44960697 0 0 Z " fill="#D8D2DC" transform="translate(78,75)"/>
<path d="M0 0 C0.87840996 3.09720845 0.99435406 4.90645403 0 8 C1.32 8 2.64 8 4 8 C3.85950482 9.47968324 3.71245174 10.95874516 3.5625 12.4375 C3.48128906 13.26121094 3.40007813 14.08492187 3.31640625 14.93359375 C3 17 3 17 2 18 C0.33382885 18.04063832 -1.33388095 18.042721 -3 18 C-3 17.34 -3 16.68 -3 16 C-3.66 16.33 -4.32 16.66 -5 17 C-5.70491267 19.32206525 -6.37212429 21.65593068 -7 24 C-7.33 24.33 -7.66 24.66 -8 25 C-6.02 25.33 -4.04 25.66 -2 26 C-1.67 25.01 -1.34 24.02 -1 23 C-0.814375 23.639375 -0.62875 24.27875 -0.4375 24.9375 C0.91214369 27.37743195 0.91214369 27.37743195 4.3125 27.6875 C5.529375 27.790625 6.74625 27.89375 8 28 C9.66934283 28.31966139 11.3373217 28.64731066 13 29 C13 29.33 13 29.66 13 30 C11.865625 30.28875 10.73125 30.5775 9.5625 30.875 C8.386875 31.24625 7.21125 31.6175 6 32 C5.67 32.66 5.34 33.32 5 34 C4.401875 33.21625 3.80375 32.4325 3.1875 31.625 C-0.14737615 28.19346078 -4.09159761 28.01425751 -8.671875 27.45703125 C-9.44015625 27.30621094 -10.2084375 27.15539062 -11 27 C-11.33 26.34 -11.66 25.68 -12 25 C-10.64527159 22.6022506 -9.24148512 20.31026214 -7.75 18 C-4.11408983 12.19525231 -1.38751491 6.77809007 0 0 Z " fill="#8A469F" transform="translate(37,51)"/>
<path d="M0 0 C3.84762566 3.4201117 6.60634022 7.46774256 9 12 C9 12.66 9 13.32 9 14 C7.58456585 14.19658808 6.16755969 14.38187546 4.75 14.5625 C3.96109375 14.66691406 3.1721875 14.77132812 2.359375 14.87890625 C0 15 0 15 -2.109375 14.40234375 C-2.73328125 14.26957031 -3.3571875 14.13679688 -4 14 C-4.99 14.66 -5.98 15.32 -7 16 C-6.67 14.68 -6.34 13.36 -6 12 C-8.64 12 -11.28 12 -14 12 C-14 11.01 -14 10.02 -14 9 C-14.99 8.67 -15.98 8.34 -17 8 C-17.33 6.02 -17.66 4.04 -18 2 C-16.68 2.99 -15.36 3.98 -14 5 C-13.34 4.67 -12.68 4.34 -12 4 C-11.34 5.98 -10.68 7.96 -10 10 C-7.69 10 -5.38 10 -3 10 C-3.33 7.36 -3.66 4.72 -4 2 C-0.55783328 4.6598561 -0.00495326 7.90288286 1 12 C2.32 11.67 3.64 11.34 5 11 C4.6390625 10.54109375 4.278125 10.0821875 3.90625 9.609375 C3.4421875 8.99578125 2.978125 8.3821875 2.5 7.75 C2.0359375 7.14671875 1.571875 6.5434375 1.09375 5.921875 C0 4 0 4 0 0 Z " fill="#54086F" transform="translate(94,67)"/>
<path d="M0 0 C2.06910593 0.02749478 2.06910593 0.02749478 4.1875 -0.375 C6.0746875 -0.684375 6.0746875 -0.684375 8 -1 C8 3.62 8 8.24 8 13 C6 9 6 9 4.5 5.3125 C3.38833467 1.931541 3.38833467 1.931541 1 1 C1.66 3.97 2.32 6.94 3 10 C-0.32901247 7.78065836 -0.75023244 6.65316671 -2 3 C-2.99 3.33 -3.98 3.66 -5 4 C-5 2.35 -5 0.7 -5 -1 C-5.99 -1 -6.98 -1 -8 -1 C-7.855625 -0.41992188 -7.71125 0.16015625 -7.5625 0.7578125 C-6.49110572 5.26659675 -5.76054064 9.33054247 -6 14 C-8.29633824 10.55549263 -8.54016485 8.06187717 -9 4 C-11.97 3.505 -11.97 3.505 -15 3 C-15 1.68 -15 0.36 -15 -1 C-4.5 -3 -4.5 -3 0 0 Z " fill="#9D50BD" transform="translate(78,59)"/>
<path d="M0 0 C5.11191254 0.09796348 10.05593629 0.49428676 15.1171875 1.23046875 C15.1171875 1.89046875 15.1171875 2.55046875 15.1171875 3.23046875 C16.7671875 3.89046875 18.4171875 4.55046875 20.1171875 5.23046875 C20.1171875 5.89046875 20.1171875 6.55046875 20.1171875 7.23046875 C19.5603125 7.15828125 19.0034375 7.08609375 18.4296875 7.01171875 C13.281243 6.38555658 8.30255712 6.1361893 3.1171875 6.23046875 C2.7871875 6.89046875 2.4571875 7.55046875 2.1171875 8.23046875 C2.1171875 7.24046875 2.1171875 6.25046875 2.1171875 5.23046875 C0.4671875 5.89046875 -1.1828125 6.55046875 -2.8828125 7.23046875 C-3.5078125 4.85546875 -3.5078125 4.85546875 -3.8828125 2.23046875 C-1.8828125 0.23046875 -1.8828125 0.23046875 0 0 Z " fill="#EDEDED" transform="translate(56.8828125,36.76953125)"/>
<path d="M0 0 C2.93484934 1.86654017 5.41261745 3.78134441 7.91015625 6.21484375 C7.91015625 6.87484375 7.91015625 7.53484375 7.91015625 8.21484375 C6.59015625 8.21484375 5.27015625 8.21484375 3.91015625 8.21484375 C4.40515625 13.16484375 4.40515625 13.16484375 4.91015625 18.21484375 C4.25015625 18.21484375 3.59015625 18.21484375 2.91015625 18.21484375 C2.62140625 17.32796875 2.33265625 16.44109375 2.03515625 15.52734375 C1.00393465 12.29814513 1.00393465 12.29814513 -0.27734375 9.65234375 C-1.23884886 6.76782843 -0.91464923 5.10166291 -0.08984375 2.21484375 C-9.3499804 -2.05906547 -18.43872264 -1.75473198 -28.08984375 1.21484375 C-27.08984375 -0.78515625 -27.08984375 -0.78515625 -24.453125 -1.88671875 C-16.3264261 -4.05761393 -7.5255117 -3.95265194 0 0 Z " fill="#767676" transform="translate(78.08984375,37.78515625)"/>
<path d="M0 0 C0.33 0.99 0.66 1.98 1 3 C3.64 3 6.28 3 9 3 C7.73211504 8.91679648 4.79317522 11.66651745 0 15 C-3.05002596 16.52501298 -4.58977476 17 -8 17 C-8 16.34 -8 15.68 -8 15 C-9.32 14.34 -10.64 13.68 -12 13 C-11.67 12.01 -11.34 11.02 -11 10 C-10.62875 10.515625 -10.2575 11.03125 -9.875 11.5625 C-8.02984021 13.26998941 -8.02984021 13.26998941 -5.25 13.0625 C-0.947179 11.65580852 1.88276609 9.23745781 5 6 C5.33 5.34 5.66 4.68 6 4 C0.555 4.495 0.555 4.495 -5 5 C-5 4.01 -5 3.02 -5 2 C-3.35 2 -1.7 2 0 2 C0 1.34 0 0.68 0 0 Z " fill="#736F74" transform="translate(79,76)"/>
<path d="M0 0 C3.40312738 1.05875074 6.01353231 2.00902154 9 4 C9.1875 7.125 9.1875 7.125 9 10 C7.68 10 6.36 10 5 10 C5 9.01 5 8.02 5 7 C4.34 7 3.68 7 3 7 C3 8.65 3 10.3 3 12 C1.68 12 0.36 12 -1 12 C-1 10.35 -1 8.7 -1 7 C-1.99 7 -2.98 7 -4 7 C-4 6.01 -4 5.02 -4 4 C-3.01 3.67 -2.02 3.34 -1 3 C-0.67 2.01 -0.34 1.02 0 0 Z " fill="#F8F3FA" transform="translate(51,78)"/>
<path d="M0 0 C0.66 0.33 1.32 0.66 2 1 C1.34 1.66 0.68 2.32 0 3 C0.30309404 7.09176955 0.87699058 10.46165096 3 14 C2.34 14.66 1.68 15.32 1 16 C-1.375 15.6875 -1.375 15.6875 -4 15 C-5.1446875 14.7215625 -5.1446875 14.7215625 -6.3125 14.4375 C-6.869375 14.293125 -7.42625 14.14875 -8 14 C-7.67 11.36 -7.34 8.72 -7 6 C-6.01 5.67 -5.02 5.34 -4 5 C-2.61423077 3.37667033 -1.27358732 1.71275535 0 0 Z " fill="#F8F3F9" transform="translate(45,45)"/>
<path d="M0 0 C3 1 3 1 4.125 2.875 C4.81761182 4.55705727 5.4247585 6.27427551 6 8 C7.32 8 8.64 8 10 8 C10.33 9.98 10.66 11.96 11 14 C9.68 14 8.36 14 7 14 C7 13.34 7 12.68 7 12 C6.34 12 5.68 12 5 12 C4.34 13.32 3.68 14.64 3 16 C1 13 1 13 1 10 C0.01 9.67 -0.98 9.34 -2 9 C-1.34 8.01 -0.68 7.02 0 6 C0.16699232 2.87478167 0.16699232 2.87478167 0 0 Z " fill="#C170D5" transform="translate(59,55)"/>
<path d="M0 0 C0.66 0 1.32 0 2 0 C2 3.3 2 6.6 2 10 C2.66 10 3.32 10 4 10 C3.9175 10.886875 3.835 11.77375 3.75 12.6875 C4.05208163 16.69008159 5.29727467 18.12835434 8 21 C7.67 21.66 7.34 22.32 7 23 C4.525 22.01 4.525 22.01 2 21 C1.98582031 20.38511719 1.97164062 19.77023438 1.95703125 19.13671875 C1.81117256 16.66500527 1.60506817 14.40322852 1 12 C-1.38987933 9.8613923 -1.38987933 9.8613923 -4 9 C-4.33 9.99 -4.66 10.98 -5 12 C-5.66 11.67 -6.32 11.34 -7 11 C-7 10.01 -7 9.02 -7 8 C-4 6 -4 6 0 6 C0 4.02 0 2.04 0 0 Z " fill="#8A7C8F" transform="translate(64,67)"/>
<path d="M0 0 C0.66 0.33 1.32 0.66 2 1 C2.18451025 11.55808656 2.18451025 11.55808656 1 16 C0.34 15.67 -0.32 15.34 -1 15 C-1 14.34 -1 13.68 -1 13 C-1.61875 12.87625 -2.2375 12.7525 -2.875 12.625 C-5 12 -5 12 -7 10 C-6.525625 9.62875 -6.05125 9.2575 -5.5625 8.875 C-3.47794198 6.37353038 -3.35378509 4.18406582 -3 1 C-2.01 0.67 -1.02 0.34 0 0 Z " fill="#C7C0C9" transform="translate(56,47)"/>
<path d="M0 0 C1.32 0 2.64 0 4 0 C4.50833591 1.24663331 5.00631145 2.49749387 5.5 3.75 C5.7784375 4.44609375 6.056875 5.1421875 6.34375 5.859375 C7 8 7 8 7 12 C3.04 12.66 -0.92 13.32 -5 14 C-5.33 13.34 -5.66 12.68 -6 12 C-5.34 12 -4.68 12 -4 12 C-3.67 11.34 -3.34 10.68 -3 10 C-1.68 10.33 -0.36 10.66 1 11 C0.67 7.37 0.34 3.74 0 0 Z " fill="#D1C6D2" transform="translate(82,46)"/>
<path d="M0 0 C2.97 0.495 2.97 0.495 6 1 C6.33 1.99 6.66 2.98 7 4 C5.35 4 3.7 4 2 4 C2 4.99 2 5.98 2 7 C7.445 6.505 7.445 6.505 13 6 C11 10 11 10 8 12 C4.3125 11.625 4.3125 11.625 1 11 C0.67 8.36 0.34 5.72 0 3 C0.66 2.67 1.32 2.34 2 2 C1.34 1.34 0.68 0.68 0 0 Z " fill="#BCB8BF" transform="translate(72,74)"/>
<path d="M0 0 C2 2 2 2 2.125 5.125 C2.08375 6.07375 2.0425 7.0225 2 8 C0.9275 8.144375 -0.145 8.28875 -1.25 8.4375 C-3.91662949 8.83749442 -6.41399729 9.27591924 -9 10 C-9 7.36 -9 4.72 -9 2 C-6.03 2.33 -3.06 2.66 0 3 C0 2.01 0 1.02 0 0 Z " fill="#CA2FDD" transform="translate(75,67)"/>
<path d="M0 0 C1.65 0.99 3.3 1.98 5 3 C5 2.01 5 1.02 5 0 C5.66 0.33 6.32 0.66 7 1 C7 3.64 7 6.28 7 9 C4.69 9.33 2.38 9.66 0 10 C-1.125 6.6875 -1.125 6.6875 -2 3 C-1.34 2.01 -0.68 1.02 0 0 Z " fill="#9210B3" transform="translate(84,68)"/>
<path d="M0 0 C-0.020625 1.093125 -0.04125 2.18625 -0.0625 3.3125 C-0.18544452 6.94384191 -0.18544452 6.94384191 1 10 C-1.375 9.75 -1.375 9.75 -4 9 C-5.1875 7 -5.1875 7 -6 5 C-6.66 4.67 -7.32 4.34 -8 4 C-5.97675095 -0.48005146 -4.79569304 -1.43870791 0 0 Z " fill="#F8FAFA" transform="translate(77,48)"/>
<path d="M0 0 C0.66 0 1.32 0 2 0 C2 0.66 2 1.32 2 2 C3.32 2.33 4.64 2.66 6 3 C5.01 5.31 4.02 7.62 3 10 C1.02 10 -0.96 10 -3 10 C-3.33 9.34 -3.66 8.68 -4 8 C-3.34 7.67 -2.68 7.34 -2 7 C-1.26924352 4.6859378 -0.59861742 2.35171131 0 0 Z " fill="#DB26F1" transform="translate(32,67)"/>
<path d="M0 0 C6.17335202 5.32185519 7.29692299 11.29873185 7.88671875 19.05859375 C7.92410156 19.69925781 7.96148437 20.33992188 8 21 C3.968743 17.90936963 3.31551012 15.01240754 2.4375 10.25390625 C1.88508041 7.4079589 0.93554739 4.73981735 0 2 C0 1.34 0 0.68 0 0 Z " fill="#7F6985" transform="translate(86,46)"/>
<path d="M0 0 C0 4.62 0 9.24 0 14 C-2 10 -2 10 -3.5 6.3125 C-4.61166533 2.931541 -4.61166533 2.931541 -7 2 C-6.34 4.97 -5.68 7.94 -5 11 C-5.99 10.34 -6.98 9.68 -8 9 C-8.6875 5.375 -8.6875 5.375 -9 2 C-3.375 0 -3.375 0 0 0 Z " fill="#882AA5" transform="translate(86,58)"/>
<path d="M0 0 C0.33 0.99 0.66 1.98 1 3 C3.64 3 6.28 3 9 3 C9.33 2.01 9.66 1.02 10 0 C10.185625 0.639375 10.37125 1.27875 10.5625 1.9375 C11.91214369 4.37743195 11.91214369 4.37743195 15.3125 4.6875 C16.529375 4.790625 17.74625 4.89375 19 5 C20.66934283 5.31966139 22.3373217 5.64731066 24 6 C24 6.33 24 6.66 24 7 C22.865625 7.28875 21.73125 7.5775 20.5625 7.875 C19.386875 8.24625 18.21125 8.6175 17 9 C16.67 9.66 16.34 10.32 16 11 C15.401875 10.21625 14.80375 9.4325 14.1875 8.625 C10.85262385 5.19346078 6.90840239 5.01425751 2.328125 4.45703125 C1.55984375 4.30621094 0.7915625 4.15539062 0 4 C-0.33 3.34 -0.66 2.68 -1 2 C-0.67 1.34 -0.34 0.68 0 0 Z " fill="#5C0770" transform="translate(26,74)"/>
<path d="M0 0 C3.08603789 0.10286793 5.76424114 0.40117967 8.75 1.125 C7.46034824 2.50062854 6.12310707 3.83266393 4.75 5.125 C4.09 5.125 3.43 5.125 2.75 5.125 C2.42 5.785 2.09 6.445 1.75 7.125 C1.75 6.135 1.75 5.145 1.75 4.125 C0.1 4.785 -1.55 5.445 -3.25 6.125 C-3.63218767 4.46885343 -3.96395102 2.80042976 -4.25 1.125 C-3.25 0.125 -3.25 0.125 0 0 Z " fill="#FBFBFB" transform="translate(57.25,37.875)"/>
<path d="M0 0 C3.25694723 3.02430814 5.72350913 6.17874747 8 10 C8 10.99 8 11.98 8 13 C4.37 13 0.74 13 -3 13 C-3 12.34 -3 11.68 -3 11 C-1.68 10.67 -0.36 10.34 1 10 C1 10.66 1 11.32 1 12 C2.32 11.67 3.64 11.34 5 11 C4.6390625 10.54109375 4.278125 10.0821875 3.90625 9.609375 C3.21015625 8.68898438 3.21015625 8.68898438 2.5 7.75 C2.0359375 7.14671875 1.571875 6.5434375 1.09375 5.921875 C0 4 0 4 0 0 Z " fill="#821299" transform="translate(94,67)"/>
<path d="M0 0 C0 1.65 0 3.3 0 5 C-3.3 5.33 -6.6 5.66 -10 6 C-10 4.35 -10 2.7 -10 1 C-3.375 0 -3.375 0 0 0 Z " fill="#F655FA" transform="translate(60,65)"/>
<path d="M0 0 C2.4375 0.75 2.4375 0.75 5 2 C5.33 3.32 5.66 4.64 6 6 C2.7 6.33 -0.6 6.66 -4 7 C-3.34 6.67 -2.68 6.34 -2 6 C-2 5.34 -2 4.68 -2 4 C-2.99 3.67 -3.98 3.34 -5 3 C-4.360625 2.690625 -3.72125 2.38125 -3.0625 2.0625 C-1.06389179 1.1654837 -1.06389179 1.1654837 0 0 Z " fill="#DDD7DF" transform="translate(67,51)"/>
<path d="M0 0 C0.99 0.33 1.98 0.66 3 1 C2.34 1 1.68 1 1 1 C1.3403125 1.8971875 1.3403125 1.8971875 1.6875 2.8125 C2 5 2 5 0.8125 6.8125 C-1 8 -1 8 -3 7.75 C-3.66 7.5025 -4.32 7.255 -5 7 C-5.99 6.67 -6.98 6.34 -8 6 C-8 5.01 -8 4.02 -8 3 C-8.99 3.33 -9.98 3.66 -11 4 C-11 3.34 -11 2.68 -11 2 C-8.48910624 1.10325223 -7.35464891 0.86827326 -4.8125 1.8125 C-3 3 -3 3 -2 5 C-1.34 3.35 -0.68 1.7 0 0 Z " fill="#A056BD" transform="translate(58,57)"/>
<path d="M0 0 C1.43836751 0.11458693 2.87570966 0.24209116 4.3125 0.375 C5.51326172 0.47941406 5.51326172 0.47941406 6.73828125 0.5859375 C9 1 9 1 12 3 C11.67 3.99 11.34 4.98 11 6 C5 4.5 5 4.5 -1 3 C-0.67 2.01 -0.34 1.02 0 0 Z " fill="#B9B9B9" transform="translate(62,42)"/>
<path d="M0 0 C1.65 0.33 3.3 0.66 5 1 C4.34 1.66 3.68 2.32 3 3 C2.83312552 5.58354218 2.83312552 5.58354218 3 8 C1.35 8.33 -0.3 8.66 -2 9 C-2.6875 6.75 -2.6875 6.75 -3 4 C-1.5625 1.6875 -1.5625 1.6875 0 0 Z " fill="#EADFED" transform="translate(70,75)"/>
<path d="M0 0 C2.62386487 3.06117568 3 3.73173127 3 8 C0.36 8.99 -2.28 9.98 -5 11 C-5.66 9.02 -6.32 7.04 -7 5 C-5.02 5 -3.04 5 -1 5 C-0.67 3.35 -0.34 1.7 0 0 Z " fill="#D22CE3" transform="translate(61,65)"/>
<path d="M0 0 C0.99 0 1.98 0 3 0 C3.32613618 4.67461851 2.70582788 7.16674383 0 11 C-1.32 10.34 -2.64 9.68 -4 9 C-3.34 8.67 -2.68 8.34 -2 8 C-2.04125 7.05125 -2.0825 6.1025 -2.125 5.125 C-2 2 -2 2 0 0 Z " fill="#B5B4B5" transform="translate(50,48)"/>
<path d="M0 0 C3 3.875 3 3.875 3 5 C1.35 5 -0.3 5 -2 5 C-2 6.98 -2 8.96 -2 11 C-2.886875 10.835 -3.77375 10.67 -4.6875 10.5 C-7.53596892 10.07004243 -10.13004802 9.91558965 -13 10 C-10 8 -10 8 -8 8 C-7.67 6.68 -7.34 5.36 -7 4 C-6.34 4 -5.68 4 -5 4 C-5 5.65 -5 7.3 -5 9 C-4.34 9 -3.68 9 -3 9 C-3 7.35 -3 5.7 -3 4 C-2.34 4 -1.68 4 -1 4 C-0.67 2.68 -0.34 1.36 0 0 Z " fill="#8A0EA9" transform="translate(53,70)"/>
<path d="M0 0 C3 1 3 1 4.1875 3.1875 C5.07334979 6.25390311 5.14770318 8.82438155 5 12 C4.01 11.67 3.02 11.34 2 11 C1.67 11.66 1.34 12.32 1 13 C0.01 11.68 -0.98 10.36 -2 9 C-1.01 9 -0.02 9 1 9 C0.67 6.03 0.34 3.06 0 0 Z " fill="#C737DC" transform="translate(79,60)"/>
<path d="M0 0 C1.98 0 3.96 0 6 0 C6.33 1.98 6.66 3.96 7 6 C5.68 6 4.36 6 3 6 C3 5.34 3 4.68 3 4 C2.34 4 1.68 4 1 4 C0.34 5.32 -0.32 6.64 -1 8 C-0.67 5.36 -0.34 2.72 0 0 Z " fill="#E962F5" transform="translate(63,63)"/>
<path d="M0 0 C-0.99 0.33 -1.98 0.66 -3 1 C-3 1.99 -3 2.98 -3 4 C-2.01 4 -1.02 4 0 4 C0 5.65 0 7.3 0 9 C-2.5 7.625 -2.5 7.625 -5 6 C-5 5.34 -5 4.68 -5 4 C-5.66 4 -6.32 4 -7 4 C-7.33 3.01 -7.66 2.02 -8 1 C-5.29120665 -0.35439668 -2.99066732 -0.06501451 0 0 Z " fill="#AAA4AA" transform="translate(50,81)"/>
<path d="M0 0 C1.65 0 3.3 0 5 0 C4.67 2.31 4.34 4.62 4 7 C2.35 7.33 0.7 7.66 -1 8 C-0.67 5.36 -0.34 2.72 0 0 Z " fill="#DED8E3" transform="translate(38,51)"/>
<path d="M0 0 C3.875 1.875 3.875 1.875 5 3 C5.04063832 4.66617115 5.042721 6.33388095 5 8 C5.66 8.33 6.32 8.66 7 9 C1.125 8.125 1.125 8.125 0 7 C-0.04092937 4.66702567 -0.04241723 2.33294775 0 0 Z " fill="#B1B0B1" transform="translate(76,48)"/>
<path d="M0 0 C0.33 0 0.66 0 1 0 C1 2.31 1 4.62 1 7 C2.65 7 4.3 7 6 7 C6 7.33 6 7.66 6 8 C4.1746875 7.9690625 4.1746875 7.9690625 2.3125 7.9375 C-0.25476076 7.92389261 -2.28569709 8.06348824 -4.8125 8.625 C-7 9 -7 9 -10 7 C-5.545 6.505 -5.545 6.505 -1 6 C-1.020625 5.195625 -1.04125 4.39125 -1.0625 3.5625 C-1 1 -1 1 0 0 Z " fill="#777279" transform="translate(61,84)"/>
<path d="M0 0 C4.55384615 -0.36923077 4.55384615 -0.36923077 6.8125 1.5 C7.204375 1.995 7.59625 2.49 8 3 C8.66 2.34 9.32 1.68 10 1 C10.33 1.99 10.66 2.98 11 4 C10 5 10 5 6.625 5.1875 C3 5 3 5 0 3 C0 2.01 0 1.02 0 0 Z " fill="#D6B3E2" transform="translate(51,75)"/>
<path d="M0 0 C0.66 0.33 1.32 0.66 2 1 C1.34 3.97 0.68 6.94 0 10 C-1.32 10 -2.64 10 -4 10 C-3.38461538 3.47692308 -3.38461538 3.47692308 -1.4375 1.0625 C-0.7259375 0.5365625 -0.7259375 0.5365625 0 0 Z " fill="#E861F6" transform="translate(43,62)"/>
<path d="M0 0 C0.66 0.33 1.32 0.66 2 1 C3.26229508 5.47540984 3.26229508 5.47540984 2 8 C-0.97 7.505 -0.97 7.505 -4 7 C-3.43628586 3.73045798 -2.50037734 2.17424117 0 0 Z " fill="#E9E9E9" transform="translate(52,38)"/>
<path d="M0 0 C0.66 0 1.32 0 2 0 C2 2.31 2 4.62 2 7 C1.236875 7.268125 0.47375 7.53625 -0.3125 7.8125 C-2.87380884 8.94424112 -4.19692938 9.91223401 -6 12 C-6.33 10.68 -6.66 9.36 -7 8 C-4 6 -4 6 0 6 C0 4.02 0 2.04 0 0 Z " fill="#772192" transform="translate(64,67)"/>
<path d="M0 0 C0.33 0.66 0.66 1.32 1 2 C-1.31 2.66 -3.62 3.32 -6 4 C-6.33 5.98 -6.66 7.96 -7 10 C-7.66 10 -8.32 10 -9 10 C-9.36103152 3.6217765 -9.36103152 3.6217765 -7.875 1.0625 C-5.214973 -0.44484863 -2.99793795 -0.19986253 0 0 Z " fill="#918F91" transform="translate(55,46)"/>
<path d="M0 0 C2.95929119 2.75520215 5.03681826 5.46627288 7 9 C5.35 9 3.7 9 2 9 C1.01 6.36 0.02 3.72 -1 1 C-0.67 0.67 -0.34 0.34 0 0 Z " fill="#D615EC" transform="translate(93,70)"/>
<path d="M0 0 C2 2 2 2 2.125 5.125 C2.08375 6.07375 2.0425 7.0225 2 8 C-0.31 8 -2.62 8 -5 8 C-5 6.35 -5 4.7 -5 3 C-3.35 3 -1.7 3 0 3 C0 2.01 0 1.02 0 0 Z " fill="#C635D6" transform="translate(75,67)"/>
<path d="M0 0 C0.33 0.99 0.66 1.98 1 3 C2.98 3 4.96 3 7 3 C7 4.32 7 5.64 7 7 C6.34 6.67 5.68 6.34 5 6 C5.33 5.34 5.66 4.68 6 4 C2.37 4.33 -1.26 4.66 -5 5 C-5 4.01 -5 3.02 -5 2 C-3.35 2 -1.7 2 0 2 C0 1.34 0 0.68 0 0 Z " fill="#95899C" transform="translate(79,76)"/>
<path d="M0 0 C0.66 0 1.32 0 2 0 C3.76462683 3.08809695 4 4.23312136 4 8 C2.68 7.67 1.36 7.34 0 7 C-1.125 2.25 -1.125 2.25 0 0 Z " fill="#E6E6E6" transform="translate(85,50)"/>
<path d="M0 0 C1.32 0.99 2.64 1.98 4 3 C4.66 2.67 5.32 2.34 6 2 C6.33 3.65 6.66 5.3 7 7 C5.35 7 3.7 7 2 7 C0.5393715 4.35261084 0 3.10551666 0 0 Z " fill="#740E92" transform="translate(76,69)"/>
<path d="M0 0 C0.99 0 1.98 0 3 0 C3 1.65 3 3.3 3 5 C3.66 5 4.32 5 5 5 C5.33 4.34 5.66 3.68 6 3 C6.66 3.66 7.32 4.32 8 5 C7.67 5.99 7.34 6.98 7 8 C7 7.34 7 6.68 7 6 C5.35 6 3.7 6 2 6 C1.67 6.99 1.34 7.98 1 9 C0.67 6.03 0.34 3.06 0 0 Z " fill="#C95EE4" transform="translate(70,58)"/>
<path d="M0 0 C0.66 0 1.32 0 2 0 C3.33583899 4.84241633 4.25328119 8.93437617 4 14 C1.01520806 9.52281208 0 5.36175907 0 0 Z " fill="#8A1EA6" transform="translate(68,59)"/>
<path d="M0 0 C0 0.66 0 1.32 0 2 C-1.65071396 3.02611949 -3.31970006 4.02308143 -5 5 C-5.556875 5.556875 -6.11375 6.11375 -6.6875 6.6875 C-7.120625 7.120625 -7.55375 7.55375 -8 8 C-8.66 8 -9.32 8 -10 8 C-10.33 9.32 -10.66 10.64 -11 12 C-11.33 11.34 -11.66 10.68 -12 10 C-10.06681166 5.52950196 -5.26941774 0 0 0 Z " fill="#4C4C4B" transform="translate(50,39)"/>
<path d="M0 0 C1.60600892 3.21201784 0.05786315 5.70887021 -1 9 C-1.33 9.66 -1.66 10.32 -2 11 C-2.66 11 -3.32 11 -4 11 C-4.56638908 6.18569279 -2.82561627 3.79692186 0 0 Z " fill="#901EA0" transform="translate(31,66)"/>
<path d="M0 0 C0.33 0 0.66 0 1 0 C1.66 2.97 2.32 5.94 3 9 C1.35 8.67 -0.3 8.34 -2 8 C-2 4.23312136 -1.76462683 3.08809695 0 0 Z " fill="#F0EAF1" transform="translate(75,49)"/>
<path d="M0 0 C1.4370809 -0.05422947 2.87475462 -0.09289723 4.3125 -0.125 C5.11300781 -0.14820312 5.91351563 -0.17140625 6.73828125 -0.1953125 C9 0 9 0 12 2 C10.2984375 2.433125 10.2984375 2.433125 8.5625 2.875 C7.386875 3.24625 6.21125 3.6175 5 4 C4.67 4.66 4.34 5.32 4 6 C2.68 4.02 1.36 2.04 0 0 Z " fill="#643C73" transform="translate(38,79)"/>
<path d="M0 0 C1.04449911 3.13349732 0.93423645 3.98968256 0 7 C-0.66 7 -1.32 7 -2 7 C-2.66 7.99 -3.32 8.98 -4 10 C-4.125 4.25 -4.125 4.25 -3 2 C-2.01 2 -1.02 2 0 2 C0 1.34 0 0.68 0 0 Z " fill="#C479DE" transform="translate(89,56)"/>
<path d="M0 0 C1.32 0.33 2.64 0.66 4 1 C4 2.65 4 4.3 4 6 C2.68 6 1.36 6 0 6 C0 4.02 0 2.04 0 0 Z " fill="#DCD6DE" transform="translate(62,84)"/>
<path d="M0 0 C0.33 0.66 0.66 1.32 1 2 C0.67 2.66 0.34 3.32 0 4 C-0.66 4 -1.32 4 -2 4 C-2 5.65 -2 7.3 -2 9 C-2.66 9 -3.32 9 -4 9 C-4.125 3.25 -4.125 3.25 -3 1 C-2.01 0.67 -1.02 0.34 0 0 Z " fill="#D528E4" transform="translate(52,70)"/>
<path d="M0 0 C1.27875 0.103125 2.5575 0.20625 3.875 0.3125 C4.95394531 0.39951172 4.95394531 0.39951172 6.0546875 0.48828125 C8 1 8 1 10 4 C3.47692308 3.38461538 3.47692308 3.38461538 1.0625 1.4375 C0.711875 0.963125 0.36125 0.48875 0 0 Z " fill="#D3D4D2" transform="translate(61,45)"/>
<path d="M0 0 C1.45880109 0.14107747 2.91703551 0.28802415 4.375 0.4375 C5.59316406 0.55931641 5.59316406 0.55931641 6.8359375 0.68359375 C9 1 9 1 11 2 C11 2.66 11 3.32 11 4 C7.37 3.34 3.74 2.68 0 2 C0 1.34 0 0.68 0 0 Z " fill="#9D9D9D" transform="translate(62,42)"/>
<path d="M0 0 C0 2.64 0 5.28 0 8 C0.99 8.33 1.98 8.66 3 9 C1.68 9 0.36 9 -1 9 C-1 7.35 -1 5.7 -1 4 C-1.99 4 -2.98 4 -4 4 C-4 3.01 -4 2.02 -4 1 C-1 0 -1 0 0 0 Z " fill="#DCD5DE" transform="translate(51,81)"/>
<path d="M0 0 C4.455 0.99 4.455 0.99 9 2 C8.67 3.65 8.34 5.3 8 7 C7.67 6.34 7.34 5.68 7 5 C7.33 4.34 7.66 3.68 8 3 C5.36 3 2.72 3 0 3 C0 2.01 0 1.02 0 0 Z " fill="#652C7A" transform="translate(80,76)"/>
<path d="M0 0 C1.85776765 3.13498292 2.20140476 5.37471432 2 9 C1.01 9 0.02 9 -1 9 C-1.625 6.1875 -1.625 6.1875 -2 3 C-1.34 2.01 -0.68 1.02 0 0 Z " fill="#BD1DD5" transform="translate(84,68)"/>
<path d="M0 0 C0.66 0.33 1.32 0.66 2 1 C1.67 2.32 1.34 3.64 1 5 C-0.65 5 -2.3 5 -4 5 C-2.25 1.125 -2.25 1.125 0 0 Z " fill="#71128F" transform="translate(38,64)"/>
<path d="M0 0 C0.99 0.33 1.98 0.66 3 1 C1.02 1.99 1.02 1.99 -1 3 C-0.67 5.64 -0.34 8.28 0 11 C-1.32 10.34 -2.64 9.68 -4 9 C-3.34 8.67 -2.68 8.34 -2 8 C-2.04125 7.05125 -2.0825 6.1025 -2.125 5.125 C-2 2 -2 2 0 0 Z " fill="#A6A2A9" transform="translate(50,48)"/>
<path d="M0 0 C3 3.875 3 3.875 3 5 C1.35 5 -0.3 5 -2 5 C-2 6.98 -2 8.96 -2 11 C-2.33 11 -2.66 11 -3 11 C-3 8.69 -3 6.38 -3 4 C-2.34 4 -1.68 4 -1 4 C-0.67 2.68 -0.34 1.36 0 0 Z " fill="#A240B4" transform="translate(53,70)"/>
<path d="M0 0 C2.97 0.495 2.97 0.495 6 1 C6.33 1.99 6.66 2.98 7 4 C4.69 4 2.38 4 0 4 C0.66 3.34 1.32 2.68 2 2 C1.34 1.34 0.68 0.68 0 0 Z " fill="#D7BCE0" transform="translate(72,74)"/>
<path d="M0 0 C0.66 0 1.32 0 2 0 C2 0.66 2 1.32 2 2 C3.32 2.33 4.64 2.66 6 3 C5.67 3.66 5.34 4.32 5 5 C3.02 4.34 1.04 3.68 -1 3 C-0.67 2.01 -0.34 1.02 0 0 Z " fill="#E254EE" transform="translate(32,67)"/>
<path d="M0 0 C0.99 0.33 1.98 0.66 3 1 C2.625 3.9375 2.625 3.9375 2 7 C1.01 7.495 1.01 7.495 0 8 C0 5.36 0 2.72 0 0 Z " fill="#F36CFB" transform="translate(46,63)"/>
<path d="M0 0 C3.875 0.875 3.875 0.875 5 2 C5.04080783 3.99958364 5.04254356 6.00045254 5 8 C4.34 8 3.68 8 3 8 C2.690625 7.05125 2.38125 6.1025 2.0625 5.125 C1.12605258 2.13919592 1.12605258 2.13919592 0 0 Z " fill="#969896" transform="translate(78,48)"/>
<path d="M0 0 C0.99 0.33 1.98 0.66 3 1 C2.67 3.31 2.34 5.62 2 8 C1.34 7.67 0.68 7.34 0 7 C0 4.69 0 2.38 0 0 Z " fill="#BDBABA" transform="translate(76,48)"/>
<path d="M0 0 C2.79872437 2.52788007 4.45773019 4.20411134 5 8 C3.0625 7.375 3.0625 7.375 1 6 C0.25 2.875 0.25 2.875 0 0 Z " fill="#757677" transform="translate(86,46)"/>
<path d="M0 0 C0.66 0 1.32 0 2 0 C0.375 5.75 0.375 5.75 -3 8 C-3.33 7.01 -3.66 6.02 -4 5 C-2.68 4.67 -1.36 4.34 0 4 C0 2.68 0 1.36 0 0 Z " fill="#817D84" transform="translate(86,79)"/>
<path d="M0 0 C0.66 0.99 1.32 1.98 2 3 C1 4 1 4 -2.4375 4.25 C-3.613125 4.1675 -4.78875 4.085 -6 4 C-6.66 3.01 -7.32 2.02 -8 1 C-7.01 1 -6.02 1 -5 1 C-5 1.66 -5 2.32 -5 3 C-3.02463255 2.65213292 -3.02463255 2.65213292 -1 2 C-0.67 1.34 -0.34 0.68 0 0 Z " fill="#D6C5D9" transform="translate(60,76)"/>
<path d="M0 0 C1.32 0 2.64 0 4 0 C4 1.65 4 3.3 4 5 C2.35 4.01 0.7 3.02 -1 2 C-0.67 1.34 -0.34 0.68 0 0 Z " fill="#BAA3C5" transform="translate(62,74)"/>
<path d="M0 0 C1.32 0.66 2.64 1.32 4 2 C3.67 2.99 3.34 3.98 3 5 C1.02 5 -0.96 5 -3 5 C-2.505 4.54625 -2.01 4.0925 -1.5 3.625 C0.22609337 2.12364481 0.22609337 2.12364481 0 0 Z " fill="#D51FEA" transform="translate(32,72)"/>
<path d="M0 0 C0.66 0.33 1.32 0.66 2 1 C1.67 2.98 1.34 4.96 1 7 C0.01 6.67 -0.98 6.34 -2 6 C-2.6875 3.9375 -2.6875 3.9375 -3 2 C-2.01 2.33 -1.02 2.66 0 3 C0 2.01 0 1.02 0 0 Z " fill="#B719CA" transform="translate(89,68)"/>
<path d="M0 0 C0.33 0 0.66 0 1 0 C1.36923077 5.53846154 1.36923077 5.53846154 -0.5 7.875 C-1.2425 8.431875 -1.2425 8.431875 -2 9 C-1.125 1.125 -1.125 1.125 0 0 Z " fill="#962CB4" transform="translate(45,62)"/>
<path d="M0 0 C0.99 0.33 1.98 0.66 3 1 C4.1875 4.5625 4.1875 4.5625 5 8 C4.34 8 3.68 8 3 8 C3 6.68 3 5.36 3 4 C2.01 3.67 1.02 3.34 0 3 C0 2.01 0 1.02 0 0 Z " fill="#DE64F1" transform="translate(79,60)"/>
<path d="" fill="#000000" transform="translate(0,0)"/>
<path d="" fill="#000000" transform="translate(0,0)"/>
<path d="" fill="#000000" transform="translate(0,0)"/>
<path d="" fill="#000000" transform="translate(0,0)"/>
<path d="" fill="#000000" transform="translate(0,0)"/>
<path d="" fill="#000000" transform="translate(0,0)"/>
<path d="" fill="#000000" transform="translate(0,0)"/>
<path d="" fill="#000000" transform="translate(0,0)"/>
<path d="" fill="#000000" transform="translate(0,0)"/>
<path d="" fill="#000000" transform="translate(0,0)"/>
<path d="" fill="#000000" transform="translate(0,0)"/>
<path d="" fill="#000000" transform="translate(0,0)"/>
<path d="" fill="#000000" transform="translate(0,0)"/>
<path d="" fill="#000000" transform="translate(0,0)"/>
<path d="" fill="#000000" transform="translate(0,0)"/>
<path d="" fill="#000000" transform="translate(0,0)"/>
<path d="" fill="#000000" transform="translate(0,0)"/>
<path d="" fill="#000000" transform="translate(0,0)"/>
<path d="" fill="#000000" transform="translate(0,0)"/>
<path d="" fill="#000000" transform="translate(0,0)"/>
<path d="" fill="#000000" transform="translate(0,0)"/>
<path d="" fill="#000000" transform="translate(0,0)"/>
<path d="" fill="#000000" transform="translate(0,0)"/>
<path d="" fill="#000000" transform="translate(0,0)"/>
<path d="" fill="#000000" transform="translate(0,0)"/>
<path d="" fill="#000000" transform="translate(0,0)"/>
<path d="" fill="#000000" transform="translate(0,0)"/>
<path d="" fill="#000000" transform="translate(0,0)"/>
<path d="" fill="#000000" transform="translate(0,0)"/>
<path d="" fill="#000000" transform="translate(0,0)"/>
<path d="" fill="#000000" transform="translate(0,0)"/>
<path d="" fill="#000000" transform="translate(0,0)"/>
<path d="" fill="#000000" transform="translate(0,0)"/>
<path d="" fill="#000000" transform="translate(0,0)"/>
<path d="" fill="#000000" transform="translate(0,0)"/>
<path d="" fill="#000000" transform="translate(0,0)"/>
<path d="" fill="#000000" transform="translate(0,0)"/>
<path d="" fill="#000000" transform="translate(0,0)"/>
<path d="" fill="#000000" transform="translate(0,0)"/>
<path d="" fill="#000000" transform="translate(0,0)"/>
<path d="" fill="#000000" transform="translate(0,0)"/>
<path d="" fill="#000000" transform="translate(0,0)"/>
<path d="" fill="#000000" transform="translate(0,0)"/>
<path d="" fill="#000000" transform="translate(0,0)"/>
<path d="" fill="#000000" transform="translate(0,0)"/>
<path d="" fill="#000000" transform="translate(0,0)"/>
<path d="" fill="#000000" transform="translate(0,0)"/>
<path d="" fill="#000000" transform="translate(0,0)"/>
<path d="" fill="#000000" transform="translate(0,0)"/>
<path d="" fill="#000000" transform="translate(0,0)"/>
<path d="" fill="#000000" transform="translate(0,0)"/>
<path d="" fill="#000000" transform="translate(0,0)"/>
<path d="" fill="#000000" transform="translate(0,0)"/>
<path d="" fill="#FF0000" transform="translate(0,0)"/>
<path d="" fill="#000000" transform="translate(0,0)"/>
<path d="" fill="#000000" transform="translate(0,0)"/>
<path d="" fill="#000000" transform="translate(0,0)"/>
<path d="" fill="#000000" transform="translate(0,0)"/>
<path d="" fill="#000000" transform="translate(0,0)"/>
<path d="" fill="#000000" transform="translate(0,0)"/>
<path d="" fill="#000000" transform="translate(0,0)"/>
</svg>
